<?xml version="1.0" encoding="UTF-8"?>
<!DOCTYPE svg PUBLIC "-//W3C//DTD SVG 1.1//EN" "http://www.w3.org/Graphics/SVG/1.1/DTD/svg11.dtd">
<!-- Creator: CorelDRAW 2018 (64-Bit) -->
<svg xmlns="http://www.w3.org/2000/svg" xml:space="preserve" width="96.063in" height="72.0472in" version="1.1" style="shape-rendering:geometricPrecision; text-rendering:geometricPrecision; image-rendering:optimizeQuality; fill-rule:evenodd; clip-rule:evenodd"
viewBox="0 0 96062.99 72047.24"
 xmlns:xlink="http://www.w3.org/1999/xlink">
 <defs>
  <style type="text/css">
   <![CDATA[
    .str1 {stroke:#898989;stroke-width:6.94;stroke-miterlimit:2.61313}
    .str0 {stroke:#2B2A29;stroke-width:6.94;stroke-miterlimit:2.61313}
    .fil0 {fill:none}
   ]]>
  </style>
 </defs>
 <g id="Layer_x0020_1">
  <metadata id="CorelCorpID_0Corel-Layer"/>
  <rect class="fil0 str0" x="393.7" y="62204.72" width="5905.51" height="9448.82"/>
  <rect class="fil0 str0" x="6692.91" y="62204.72" width="5905.51" height="9448.82"/>
  <circle class="fil0 str1" cx="3346.46" cy="66929.13" r="1937.01"/>
  <rect class="fil0 str0" transform="matrix(2.64845E-14 -1 1.09542 2.90118E-14 393.701 61811)" width="5905.51" height="4905.89"/>
  <rect class="fil0 str0" transform="matrix(2.64845E-14 -1.36 1.09542 3.9456E-14 393.701 55511.8)" width="5905.51" height="4905.89"/>
  <circle class="fil0 str0" cx="3346.46" cy="63779.53" r="687.5"/>
  <circle class="fil0 str0" cx="3346.46" cy="66929.13" r="1523.62"/>
  <circle class="fil0 str0" cx="9645.67" cy="66929.13" r="462.6"/>
  <circle class="fil0 str0" cx="9267.81" cy="66456.69" r="37.4"/>
  <circle class="fil0 str0" cx="10023.53" cy="67401.57" r="37.4"/>
  <circle class="fil0 str0" cx="1574.8" cy="66929.13" r="82.68"/>
  <circle class="fil0 str0" cx="5118.11" cy="66929.13" r="82.68"/>
  <circle class="fil0 str0" transform="matrix(0.375861 -0.651011 0.65101 0.375861 2460.63 68463.4)" r="109.96"/>
  <circle class="fil0 str0" transform="matrix(0.375861 -0.651011 0.65101 0.375861 4232.28 65394.8)" r="109.96"/>
  <circle class="fil0 str0" transform="matrix(-0.375879 -0.651041 0.651041 -0.375879 4232.28 68463.4)" r="109.96"/>
  <circle class="fil0 str0" transform="matrix(-0.375879 -0.651041 0.651041 -0.375879 2460.63 65394.8)" r="109.96"/>
  <rect class="fil0 str0" transform="matrix(2.64845E-14 -1 1.09542 2.90118E-14 6161.42 61811)" width="5905.51" height="4905.89"/>
  <rect class="fil0 str0" transform="matrix(2.64845E-14 -1.36 1.09542 3.9456E-14 6161.42 55511.8)" width="5905.51" height="4905.89"/>
 </g>
</svg>
